<svg width="235" height="27" viewBox="0 0 235 27" fill="none" xmlns="http://www.w3.org/2000/svg">
<path d="M156.63 1.54781C159.824 1.67159 171.111 2.39271 178.375 2.51302C195.183 2.78255 211.777 1.27663 228.324 4.31002C230.91 4.7875 235.472 6.24486 234.755 14.1885C234.009 22.4548 231.446 26.6024 226.905 26.1577C215.915 25.0718 204.248 24.1407 193.14 25.2506C176.891 26.8712 160.924 25.256 144.824 25.1992C130.367 25.148 115.969 24.2886 101.508 24.3148C87.9233 24.334 74.2353 25.7303 60.6955 25.2442C49.0092 24.8231 38.1515 23.4351 26.514 22.3464C23.7746 22.0897 19.6786 22.4463 16.67 22.2314C14.1825 22.0517 10.0254 21.8642 7.6071 21.1034C6.56366 20.7717 5.48481 20.3593 4.41657 20.6265C-0.997318 19.768 -0.370985 14.3843 0.790981 9.87222C1.30262 7.88491 1.12285 7.04833 1.10279 6.0677C1.07764 4.10483 1.59266 3.20658 1.64185 3.1328C5.59792 -2.26594 9.94358 0.956211 13.5937 0.933044C31.504 0.846265 49.3752 1.30767 67.2597 1.57223C78.2336 1.73082 89.1798 2.41025 100.204 1.66815C103.223 1.46674 105.784 0.917315 109.298 1.15889L109.246 1.15468C112.44 0.974488 115.656 0.534561 118.826 0.649316C130.822 1.08835 141.271 0.841526 154.445 1.48557C154.897 1.52205 155.963 1.52217 156.63 1.54781Z" fill="#BF57F3"/>
</svg>
