<svg width="99" height="42" viewBox="0 0 99 42" fill="none" xmlns="http://www.w3.org/2000/svg">
<path d="M0 8C0 3.58172 3.58172 0 8 0H91C95.4183 0 99 3.58172 99 8V34C99 38.4183 95.4183 42 91 42H8C3.58172 42 0 38.4183 0 34V8Z" fill="#EFEEED" fill-opacity="0.4"/>
<path d="M17.48 28V13.8H23.16C24.8667 13.8 26.2 14.2133 27.16 15.04C28.1333 15.8667 28.62 17 28.62 18.44C28.62 19.3867 28.4 20.2133 27.96 20.92C27.5333 21.6133 26.9067 22.1533 26.08 22.54C25.2667 22.9133 24.2933 23.1 23.16 23.1H20.52V28H17.48ZM20.52 20.54H22.98C23.78 20.54 24.4 20.3667 24.84 20.02C25.28 19.66 25.5 19.1333 25.5 18.44C25.5 17.76 25.28 17.2467 24.84 16.9C24.4133 16.54 23.7933 16.36 22.98 16.36H20.52V20.54ZM30.5269 28V13.8H33.5669V20.54L32.2269 19.58H40.3069L38.9469 20.54V13.8H41.9869V28H38.9469V21.18L40.3069 22.14H32.2269L33.5669 21.18V28H30.5269ZM43.6456 28L48.7656 13.8H52.3656L57.4856 28H54.3256L53.2856 24.98H47.8256L46.7856 28H43.6456ZM48.6856 22.48H52.4456L50.5656 17L48.6856 22.48ZM64.1352 28.32C62.9085 28.32 61.8552 28.1133 60.9752 27.7C60.0952 27.2867 59.4085 26.7067 58.9152 25.96C58.4218 25.2133 58.1418 24.3333 58.0752 23.32L61.1352 23.18C61.2152 23.74 61.3752 24.22 61.6152 24.62C61.8685 25.0067 62.2018 25.3 62.6152 25.5C63.0418 25.7 63.5618 25.8 64.1752 25.8C64.6818 25.8 65.1085 25.74 65.4552 25.62C65.8152 25.5 66.0885 25.32 66.2752 25.08C66.4618 24.8267 66.5552 24.52 66.5552 24.16C66.5552 23.8267 66.4752 23.54 66.3152 23.3C66.1552 23.0467 65.8485 22.82 65.3952 22.62C64.9418 22.4067 64.2752 22.2 63.3952 22C62.1818 21.72 61.2018 21.4067 60.4552 21.06C59.7218 20.7133 59.1885 20.28 58.8552 19.76C58.5218 19.2267 58.3552 18.56 58.3552 17.76C58.3552 16.9067 58.5618 16.16 58.9752 15.52C59.4018 14.88 60.0152 14.38 60.8152 14.02C61.6152 13.66 62.5685 13.48 63.6752 13.48C64.8485 13.48 65.8418 13.6867 66.6552 14.1C67.4685 14.5133 68.1018 15.08 68.5552 15.8C69.0218 16.52 69.3018 17.3467 69.3952 18.28L66.3552 18.44C66.3152 17.9467 66.1818 17.52 65.9552 17.16C65.7285 16.7867 65.4218 16.5 65.0352 16.3C64.6485 16.1 64.1818 16 63.6352 16C62.9418 16 62.3952 16.1533 61.9952 16.46C61.6085 16.7667 61.4152 17.1667 61.4152 17.66C61.4152 18.0067 61.5018 18.3 61.6752 18.54C61.8618 18.7667 62.1618 18.9667 62.5752 19.14C63.0018 19.3133 63.6018 19.48 64.3752 19.64C65.6952 19.9067 66.7352 20.2467 67.4952 20.66C68.2685 21.06 68.8152 21.54 69.1352 22.1C69.4552 22.66 69.6152 23.3 69.6152 24.02C69.6152 24.9 69.3885 25.6667 68.9352 26.32C68.4952 26.96 67.8618 27.4533 67.0352 27.8C66.2218 28.1467 65.2552 28.32 64.1352 28.32ZM71.8159 28V13.8H81.6959V16.36H74.8559V19.62H81.4559V22.14H74.8559V25.44H81.8559V28H71.8159Z" fill="black"/>
</svg>
